:FULLY-SPECIFIED
:FORCE-ALL-JOINTS-BE-3DOF
:DEGREES
544
root 8.1576 13.9755 -3.57772 -181.128 47.57 -183.54
lfemur -33.3977 -5.8309 -17.3371
ltibia 88.7796 0 0
lfoot -39.0322 -8.74203 0
ltoes -7.23065 0 0
rfemur -48.4711 -7.57684 -3.92248
rtibia 63.5162 0 0
rfoot -10.9048 1.23031 0
rtoes -39.8855 0 0
lowerback 13.3222 1.45549 1.10307
upperback 7.08086 3.05117 7.26929
thorax -0.354713 1.80355 6.6207
lowerneck -2.41485 -16.3078 -6.36051
upperneck 10.0257 -22.1529 8.61018
head 5.08744 -10.6624 2.17813
lclavicle -1.23857e-13 -3.94235e-14 0
lhumerus -44.8819 -13.2623 104.917
lradius 57.4815 0 0
lwrist 29.6861 0 0
lhand -25.1132 -2.87811 0
lfingers 7.12502 0 0
lthumb 1.40233 27.101 0
rclavicle -1.23857e-13 -3.94235e-14 0
rhumerus 4.93217 16.2764 -91.2652
rradius 136.959 0 0
rwrist -47.6858 0 0
rhand -31.7368 -25.1328 0
rfingers 7.12502 0 0
rthumb -4.99455 -775.051 0
545
root 8.20587 13.9565 -3.54527 -181.175 47.1862 -183.536
lfemur -33.4462 -5.86951 -16.9039
ltibia 88.9164 0 0
lfoot -39.215 -9.77568 0
ltoes -6.51776 0 0
rfemur -48.533 -7.62461 -3.78685
rtibia 64.1131 0 0
rfoot -11.1549 0.706497 0
rtoes -39.7541 0 0
lowerback 13.2519 1.29993 1.11882
upperback 7.06952 2.83308 7.1609
thorax -0.30318 1.69235 6.52648
lowerneck -2.27579 -16.2009 -6.28259
upperneck 9.70145 -22.0112 8.68557
head 4.95399 -10.6045 2.22873
lclavicle -1.02463e-13 -4.37163e-14 0
lhumerus -45.0822 -12.7443 104.484
lradius 56.9893 0 0
lwrist 29.8252 0 0
lhand -25.1047 -2.81919 0
lfingers 7.12502 0 0
lthumb 1.41056 27.1604 0
rclavicle -1.02463e-13 -4.37163e-14 0
rhumerus 5.22679 16.8115 -90.9575
rradius 136.688 0 0
rwrist -47.1709 0 0
rhand -31.3379 -24.6946 0
rfingers 7.12502 0 0
rthumb -4.60939 -774.619 0
546
root 8.25443 13.9452 -3.51173 -181.185 46.8036 -183.497
lfemur -33.4688 -5.90329 -16.427
ltibia 88.948 0 0
lfoot -39.3718 -10.9029 0
ltoes -5.67687 0 0
rfemur -48.5873 -7.59355 -3.63687
rtibia 64.6432 0 0
rfoot -11.2564 0.165465 0
rtoes -39.6146 0 0
lowerback 13.1565 1.1088 1.14218
upperback 7.03703 2.56399 7.02802
thorax -0.25414 1.55454 6.40859
lowerneck -2.13574 -16.0718 -6.19197
upperneck 9.34421 -21.8374 8.74642
head 4.8049 -10.5333 2.27825
lclavicle -7.50511e-14 -4.92351e-14 0
lhumerus -45.3108 -12.2318 104.033
lradius 56.4254 0 0
lwrist 29.9022 0 0
lhand -25.042 -2.79108 0
lfingers 7.12502 0 0
lthumb 1.47108 27.188 0
rclavicle -7.50511e-14 -4.92351e-14 0
rhumerus 5.68558 17.3944 -90.4715
rradius 136.368 0 0
rwrist -46.5793 0 0
rhand -30.8133 -24.1535 0
rfingers 7.12502 0 0
rthumb -4.10277 -774.085 0
547
root 8.29992 13.9447 -3.4789 -181.149 46.4638 -183.422
lfemur -33.4487 -5.91353 -15.9332
ltibia 88.8322 0 0
lfoot -39.4917 -12.0514 0
ltoes -4.76098 0 0
rfemur -48.6242 -7.47389 -3.47263
rtibia 65.0333 0 0
rfoot -11.1742 -0.350931 0
rtoes -39.4691 0 0
lowerback 13.0349 0.889741 1.16779
upperback 6.98004 2.25346 6.87404
thorax -0.211647 1.39473 6.27227
lowerneck -2.00367 -15.9254 -6.09095
upperneck 8.97365 -21.6378 8.78487
head 4.64763 -10.4513 2.32259
lclavicle -4.31287e-14 -5.54255e-14 0
lhumerus -45.5551 -11.7465 103.584
lradius 55.8166 0 0
lwrist 29.9074 0 0
lhand -24.9307 -2.80065 0
lfingers 7.12502 0 0
lthumb 1.57862 27.177 0
rclavicle -4.31287e-14 -5.54255e-14 0
rhumerus 6.30951 17.9908 -89.8144
rradius 136.015 0 0
rwrist -45.9413 0 0
rhand -30.1884 -23.5373 0
rfingers 7.12502 0 0
rthumb -3.4993 -773.479 0
